<svg width="5%" height="5%" viewBox="-20 70 300 250" fill="none" xmlns="http://www.w3.org/2000/svg">
  <path fill-rule="evenodd" clip-rule="evenodd" d="M152.716 71.7453L132.004 8L110.367 74.5901L52.6862 34.9009L75.0256 98.0941H8L64.6449 139.249L9.0736 181.843L76.0773 180.124L55.3653 243.869L112.01 202.715L135.346 268.728L154.418 204.473L208.643 243.869L187.006 177.28L257 175.485L201.783 137.491L256.008 98.0941H185.991L205.913 30.9714L152.716 71.7453Z" fill="#E4CCFF"/>
  <path d="M55.956 306.88V310.168H49.092V313.72H54.228V316.912H49.092V323.728H44.988V306.88H55.956ZM71.025 323.728L67.521 317.368H66.537V323.728H62.433V306.88H69.321C70.649 306.88 71.777 307.112 72.705 307.576C73.649 308.04 74.353 308.68 74.817 309.496C75.281 310.296 75.513 311.192 75.513 312.184C75.513 313.304 75.193 314.304 74.553 315.184C73.929 316.064 73.001 316.688 71.769 317.056L75.657 323.728H71.025ZM66.537 314.464H69.081C69.833 314.464 70.393 314.28 70.761 313.912C71.145 313.544 71.337 313.024 71.337 312.352C71.337 311.712 71.145 311.208 70.761 310.84C70.393 310.472 69.833 310.288 69.081 310.288H66.537V314.464ZM86.5132 310.168V313.576H92.0092V316.744H86.5132V320.44H92.7292V323.728H82.4092V306.88H92.7292V310.168H86.5132ZM103.818 310.168V313.576H109.314V316.744H103.818V320.44H110.034V323.728H99.7136V306.88H110.034V310.168H103.818ZM132.52 323.896C131.288 323.896 130.184 323.696 129.208 323.296C128.232 322.896 127.448 322.304 126.856 321.52C126.28 320.736 125.976 319.792 125.944 318.688H130.312C130.376 319.312 130.592 319.792 130.96 320.128C131.328 320.448 131.808 320.608 132.4 320.608C133.008 320.608 133.488 320.472 133.84 320.2C134.192 319.912 134.368 319.52 134.368 319.024C134.368 318.608 134.224 318.264 133.936 317.992C133.664 317.72 133.32 317.496 132.904 317.32C132.504 317.144 131.928 316.944 131.176 316.72C130.088 316.384 129.2 316.048 128.512 315.712C127.824 315.376 127.232 314.88 126.736 314.224C126.24 313.568 125.992 312.712 125.992 311.656C125.992 310.088 126.56 308.864 127.696 307.984C128.832 307.088 130.312 306.64 132.136 306.64C133.992 306.64 135.488 307.088 136.624 307.984C137.76 308.864 138.368 310.096 138.448 311.68H134.008C133.976 311.136 133.776 310.712 133.408 310.408C133.04 310.088 132.568 309.928 131.992 309.928C131.496 309.928 131.096 310.064 130.792 310.336C130.488 310.592 130.336 310.968 130.336 311.464C130.336 312.008 130.592 312.432 131.104 312.736C131.616 313.04 132.416 313.368 133.504 313.72C134.592 314.088 135.472 314.44 136.144 314.776C136.832 315.112 137.424 315.6 137.92 316.24C138.416 316.88 138.664 317.704 138.664 318.712C138.664 319.672 138.416 320.544 137.92 321.328C137.44 322.112 136.736 322.736 135.808 323.2C134.88 323.664 133.784 323.896 132.52 323.896ZM158.35 312.304C158.35 313.28 158.126 314.176 157.678 314.992C157.23 315.792 156.542 316.44 155.614 316.936C154.686 317.432 153.534 317.68 152.158 317.68H149.614V323.728H145.51V306.88H152.158C153.502 306.88 154.638 307.112 155.566 307.576C156.494 308.04 157.19 308.68 157.654 309.496C158.118 310.312 158.35 311.248 158.35 312.304ZM151.846 314.416C152.63 314.416 153.214 314.232 153.598 313.864C153.982 313.496 154.174 312.976 154.174 312.304C154.174 311.632 153.982 311.112 153.598 310.744C153.214 310.376 152.63 310.192 151.846 310.192H149.614V314.416H151.846ZM175.294 320.752H169.006L167.998 323.728H163.702L169.798 306.88H174.55L180.646 323.728H176.302L175.294 320.752ZM174.238 317.584L172.15 311.416L170.086 317.584H174.238ZM186.125 315.28C186.125 313.616 186.485 312.136 187.205 310.84C187.925 309.528 188.925 308.512 190.205 307.792C191.501 307.056 192.965 306.688 194.597 306.688C196.597 306.688 198.309 307.216 199.733 308.272C201.157 309.328 202.109 310.768 202.589 312.592H198.077C197.741 311.888 197.261 311.352 196.637 310.984C196.029 310.616 195.333 310.432 194.549 310.432C193.285 310.432 192.261 310.872 191.477 311.752C190.693 312.632 190.301 313.808 190.301 315.28C190.301 316.752 190.693 317.928 191.477 318.808C192.261 319.688 193.285 320.128 194.549 320.128C195.333 320.128 196.029 319.944 196.637 319.576C197.261 319.208 197.741 318.672 198.077 317.968H202.589C202.109 319.792 201.157 321.232 199.733 322.288C198.309 323.328 196.597 323.848 194.597 323.848C192.965 323.848 191.501 323.488 190.205 322.768C188.925 322.032 187.925 321.016 187.205 319.72C186.485 318.424 186.125 316.944 186.125 315.28ZM213.527 310.168V313.576H219.023V316.744H213.527V320.44H219.743V323.728H209.423V306.88H219.743V310.168H213.527Z" fill="#FD6A63"/>
  </svg>