<svg width="100px" height="100px" viewBox="-20 70 300 250" fill="none" xmlns="http://www.w3.org/2000/svg">
  <path fill-rule="evenodd" clip-rule="evenodd" d="M152.716 71.7453L132.004 8L110.367 74.5901L52.6862 34.9009L75.0256 98.0941H8L64.6449 139.249L9.0736 181.843L76.0773 180.124L55.3653 243.869L112.01 202.715L135.346 268.728L154.418 204.473L208.643 243.869L187.006 177.28L257 175.485L201.783 137.491L256.008 98.0941H185.991L205.913 30.9714L152.716 71.7453Z" fill="#C8FEFE"/>
  <path d="M68.084 323.896C66.852 323.896 65.748 323.696 64.772 323.296C63.796 322.896 63.012 322.304 62.42 321.52C61.844 320.736 61.54 319.792 61.508 318.688H65.876C65.94 319.312 66.156 319.792 66.524 320.128C66.892 320.448 67.372 320.608 67.964 320.608C68.572 320.608 69.052 320.472 69.404 320.2C69.756 319.912 69.932 319.52 69.932 319.024C69.932 318.608 69.788 318.264 69.5 317.992C69.228 317.72 68.884 317.496 68.468 317.32C68.068 317.144 67.492 316.944 66.74 316.72C65.652 316.384 64.764 316.048 64.076 315.712C63.388 315.376 62.796 314.88 62.3 314.224C61.804 313.568 61.556 312.712 61.556 311.656C61.556 310.088 62.124 308.864 63.26 307.984C64.396 307.088 65.876 306.64 67.7 306.64C69.556 306.64 71.052 307.088 72.188 307.984C73.324 308.864 73.932 310.096 74.012 311.68H69.572C69.54 311.136 69.34 310.712 68.972 310.408C68.604 310.088 68.132 309.928 67.556 309.928C67.06 309.928 66.66 310.064 66.356 310.336C66.052 310.592 65.9 310.968 65.9 311.464C65.9 312.008 66.156 312.432 66.668 312.736C67.18 313.04 67.98 313.368 69.068 313.72C70.156 314.088 71.036 314.44 71.708 314.776C72.396 315.112 72.988 315.6 73.484 316.24C73.98 316.88 74.228 317.704 74.228 318.712C74.228 319.672 73.98 320.544 73.484 321.328C73.004 322.112 72.3 322.736 71.372 323.2C70.444 323.664 69.348 323.896 68.084 323.896ZM85.1056 306.88V316.96C85.1056 317.968 85.3536 318.744 85.8496 319.288C86.3456 319.832 87.0736 320.104 88.0336 320.104C88.9936 320.104 89.7296 319.832 90.2416 319.288C90.7536 318.744 91.0096 317.968 91.0096 316.96V306.88H95.1136V316.936C95.1136 318.44 94.7936 319.712 94.1536 320.752C93.5136 321.792 92.6496 322.576 91.5616 323.104C90.4896 323.632 89.2896 323.896 87.9616 323.896C86.6336 323.896 85.4416 323.64 84.3856 323.128C83.3456 322.6 82.5216 321.816 81.9136 320.776C81.3056 319.72 81.0016 318.44 81.0016 316.936V306.88H85.1056ZM110.907 323.728L107.403 317.368H106.419V323.728H102.315V306.88H109.203C110.531 306.88 111.659 307.112 112.587 307.576C113.531 308.04 114.235 308.68 114.699 309.496C115.164 310.296 115.396 311.192 115.396 312.184C115.396 313.304 115.076 314.304 114.436 315.184C113.811 316.064 112.883 316.688 111.652 317.056L115.54 323.728H110.907ZM106.419 314.464H108.963C109.715 314.464 110.275 314.28 110.643 313.912C111.027 313.544 111.22 313.024 111.22 312.352C111.22 311.712 111.027 311.208 110.643 310.84C110.275 310.472 109.715 310.288 108.963 310.288H106.419V314.464ZM135.132 312.304C135.132 313.28 134.908 314.176 134.46 314.992C134.012 315.792 133.324 316.44 132.396 316.936C131.468 317.432 130.316 317.68 128.94 317.68H126.396V323.728H122.292V306.88H128.94C130.284 306.88 131.42 307.112 132.348 307.576C133.276 308.04 133.972 308.68 134.436 309.496C134.9 310.312 135.132 311.248 135.132 312.304ZM128.628 314.416C129.412 314.416 129.996 314.232 130.38 313.864C130.764 313.496 130.956 312.976 130.956 312.304C130.956 311.632 130.764 311.112 130.38 310.744C129.996 310.376 129.412 310.192 128.628 310.192H126.396V314.416H128.628ZM150.18 323.728L146.676 317.368H145.692V323.728H141.588V306.88H148.476C149.804 306.88 150.932 307.112 151.86 307.576C152.804 308.04 153.508 308.68 153.972 309.496C154.436 310.296 154.668 311.192 154.668 312.184C154.668 313.304 154.348 314.304 153.708 315.184C153.084 316.064 152.156 316.688 150.924 317.056L154.812 323.728H150.18ZM145.692 314.464H148.236C148.988 314.464 149.548 314.28 149.916 313.912C150.3 313.544 150.492 313.024 150.492 312.352C150.492 311.712 150.3 311.208 149.916 310.84C149.548 310.472 148.988 310.288 148.236 310.288H145.692V314.464ZM165.669 306.88V323.728H161.565V306.88H165.669ZM179.059 323.896C177.827 323.896 176.723 323.696 175.747 323.296C174.771 322.896 173.987 322.304 173.395 321.52C172.819 320.736 172.515 319.792 172.483 318.688H176.851C176.915 319.312 177.131 319.792 177.499 320.128C177.867 320.448 178.347 320.608 178.939 320.608C179.547 320.608 180.027 320.472 180.379 320.2C180.731 319.912 180.907 319.52 180.907 319.024C180.907 318.608 180.763 318.264 180.475 317.992C180.203 317.72 179.859 317.496 179.443 317.32C179.043 317.144 178.467 316.944 177.715 316.72C176.627 316.384 175.739 316.048 175.051 315.712C174.363 315.376 173.771 314.88 173.275 314.224C172.779 313.568 172.531 312.712 172.531 311.656C172.531 310.088 173.099 308.864 174.235 307.984C175.371 307.088 176.851 306.64 178.675 306.64C180.531 306.64 182.027 307.088 183.163 307.984C184.299 308.864 184.907 310.096 184.987 311.68H180.547C180.515 311.136 180.315 310.712 179.947 310.408C179.579 310.088 179.107 309.928 178.531 309.928C178.035 309.928 177.635 310.064 177.331 310.336C177.027 310.592 176.875 310.968 176.875 311.464C176.875 312.008 177.131 312.432 177.643 312.736C178.155 313.04 178.955 313.368 180.043 313.72C181.131 314.088 182.011 314.44 182.683 314.776C183.371 315.112 183.963 315.6 184.459 316.24C184.955 316.88 185.203 317.704 185.203 318.712C185.203 319.672 184.955 320.544 184.459 321.328C183.979 322.112 183.275 322.736 182.347 323.2C181.419 323.664 180.323 323.896 179.059 323.896ZM196.152 310.168V313.576H201.648V316.744H196.152V320.44H202.368V323.728H192.048V306.88H202.368V310.168H196.152Z" fill="#FD6A63"/>
  </svg>